<mxfile host="app.diagrams.net" modified="2024-03-30T12:58:24.286Z" agent="Mozilla/5.0 (Windows NT 10.0; Win64; x64) AppleWebKit/537.36 (KHTML, like Gecko) Chrome/123.0.0.0 Safari/537.36 Edg/123.0.0.0" etag="QzScPjspDJ5hsp1I_PQm" version="24.0.6" type="onedrive">
  <diagram name="第 1 页" id="JoRhOa_39hkZp3uALcYy">
    <mxGraphModel grid="1" page="1" gridSize="10" guides="1" tooltips="1" connect="1" arrows="1" fold="1" pageScale="1" pageWidth="827" pageHeight="1169" math="0" shadow="0">
      <root>
        <mxCell id="0" />
        <mxCell id="1" parent="0" />
        <mxCell id="8pli3Y9fvPYkEuydEIWl-1" value="&lt;div&gt;&amp;nbsp; ABBAABAB&lt;/div&gt;ABAB&lt;br&gt;&lt;div&gt;&amp;nbsp; &amp;nbsp; &amp;nbsp;0 0 1 0 1 2 3 0&amp;nbsp;&lt;br&gt;&lt;/div&gt;" style="text;html=1;align=center;verticalAlign=middle;resizable=0;points=[];autosize=1;strokeColor=none;fillColor=none;" vertex="1" parent="1">
          <mxGeometry x="160" y="163" width="120" height="60" as="geometry" />
        </mxCell>
      </root>
    </mxGraphModel>
  </diagram>
</mxfile>
